<?xml version="1.0" encoding="utf-8"?>
<!-- Generator: Adobe Illustrator 16.0.0, SVG Export Plug-In . SVG Version: 6.00 Build 0)  -->
<!DOCTYPE svg PUBLIC "-//W3C//DTD SVG 1.1//EN" "http://www.w3.org/Graphics/SVG/1.1/DTD/svg11.dtd">
<svg version="1.1" id="Layer_1" xmlns="http://www.w3.org/2000/svg" xmlns:xlink="http://www.w3.org/1999/xlink" x="0px" y="0px"
	 width="80px" height="122px" viewBox="0 0 80 122" enable-background="new 0 0 80 122" xml:space="preserve">
<g>
	<g>
		<g>
			
				<linearGradient id="SVGID_1_" gradientUnits="userSpaceOnUse" x1="-23.98" y1="21.3145" x2="-4.0578" y2="12.7328" gradientTransform="matrix(1.4949 0 0 1.4949 63.901 7.5002)">
				<stop  offset="0" style="stop-color:#A7A8AA"/>
				<stop  offset="0.1922" style="stop-color:#A4A5A7"/>
				<stop  offset="0.3529" style="stop-color:#A3A4A6"/>
				<stop  offset="0.5216" style="stop-color:#C8C8C9"/>
				<stop  offset="0.6" style="stop-color:#D5D5D5"/>
				<stop  offset="0.6667" style="stop-color:#FFFFFF"/>
				<stop  offset="0.7216" style="stop-color:#CDCDCE"/>
				<stop  offset="0.8353" style="stop-color:#A1A2A4"/>
				<stop  offset="1" style="stop-color:#9D9EA0"/>
				<stop  offset="1" style="stop-color:#000000"/>
			</linearGradient>
			<path fill-rule="evenodd" clip-rule="evenodd" fill="url(#SVGID_1_)" d="M43.1,60.6l-0.4,0.2c-4.3-0.1-6.9-2.2-7.9-6.4
				c0,0-0.1-0.1-0.1-0.2C38,38.8,42.9,21.5,49.6,2.3h0.4c-0.3,10-0.7,17.5-1.3,22.6c-0.6,5.4-1.2,10.4-1.8,15
				C46.4,44.4,45.1,51.4,43.1,60.6z"/>
			<path fill-rule="evenodd" clip-rule="evenodd" fill="#939395" d="M43.5,60.4l-0.4,0.2c2-9.3,3.3-16.2,3.8-20.8
				c0.5-4.6,1.1-9.6,1.8-15c0.6-5.1,1-12.6,1.3-22.6C49.9,22.7,47.7,42.1,43.5,60.4z"/>
			<polygon fill-rule="evenodd" clip-rule="evenodd" fill="#3A3A3A" points="33.2,59.5 33.6,60.3 33.4,61.1 			"/>
			<path fill-rule="evenodd" clip-rule="evenodd" fill="#D5D5D7" d="M25.7,110.3c0.2-0.2,0.3-0.3,0.4-0.5c2.5-3.6,3.6-7.5,3.3-11.8
				c0.4-1,0.4-2.5,0.1-4.5c1.7,5.2,0.8,10.8-2.8,16.7c-3.3,4.4-6.7,7-10.2,7.5c-7.1,0.8-11.7-2.8-13.8-11C1.5,99.9,3.2,94,7.7,89
				c2.3-2,4.3-3.3,5.8-3.9c1.5-0.5,3.9-1.2,7.2-2.1c3.2-0.8,5.4-2.3,6.4-4.4c2.5-6.6,4.5-12.9,6.1-19.1l0.2,1.6L33,62.7L32.1,66
				c-0.1,0.3-0.2,0.7-0.3,1v0.1c-0.5,1.6-1,3.3-1.4,5.1c0,0.2-0.1,0.3-0.1,0.4c-0.7,3-1.7,5.5-2.8,7.4l-0.1,0.1
				c-0.6,1-1.3,1.9-2.2,2.5l-1.8,1c-1,0.3-2.8,0.8-5.3,1.3c-2.5,0.5-4,1.1-4.6,1.7c-0.1,0.1-0.1,0.2-0.1,0.3c0.1,0,0.2-0.1,0.3-0.1
				L12,87.6c0,0-0.1,0-0.1,0.1l0.1-0.6l-1,0.3C5,91.9,2.5,98,3.4,105.6c0.2,1.8,0.7,3.4,1.4,4.9c0,0.1,0.1,0.2,0.1,0.3
				c0.2,0.4,0.4,0.8,0.6,1.1c0.1,0.3,0.3,0.5,0.4,0.7c2.4,3.3,5.3,5,8.7,4.9c1.2,0,2.4-0.3,3.6-0.7c2.4-0.9,4.6-2.6,6.6-5.2
				c0-0.1,0.1-0.2,0.1-0.2c0,0,0-0.1,0.1-0.1c0.2-0.2,0.3-0.3,0.4-0.5l0-0.1c0,0,0,0,0-0.1C25.6,110.4,25.7,110.4,25.7,110.3z
				 M9.3,88.1c-0.4,0.3-0.8,0.7-1.3,1.1c-1.6,1.5-2.9,3.5-3.9,5.8C5.1,92.7,6.8,90.4,9.3,88.1z"/>
			<polygon fill-rule="evenodd" clip-rule="evenodd" fill="#494D50" points="33.4,61.1 33.6,60.3 33.9,60.9 34.5,61.8 34.6,63.2 
				33.5,61.4 			"/>
			<polygon fill-rule="evenodd" clip-rule="evenodd" fill="#D9DADE" points="33.5,61.4 34,64 34.1,64.4 34.1,64.5 33.2,63.9 
				33,62.7 33.4,61.1 			"/>
			<path fill-rule="evenodd" clip-rule="evenodd" fill="#D6D6D6" d="M33.3,58.9l0.3,0.4v1l-0.4-0.8C33.2,59.3,33.3,59.1,33.3,58.9z"
				/>
			<path fill-rule="evenodd" clip-rule="evenodd" fill="#B2B6B9" d="M33.2,63.9l0.9,0.6l0.1,0.9l0.1,0.9c-0.2-0.5-0.6-0.9-1.1-1.2
				L33.2,63.9z"/>
			<path fill-rule="evenodd" clip-rule="evenodd" fill="#28292B" d="M33,62.7l0.1,1.2l0.1,1.2L32.8,67l1.2,1.9l-0.3,0.2l-1.3-1.9
				l-1.6,5.5c-1,3.3-2,5.8-3.1,7.5c-0.8,1.2-1.7,2-2.7,2.4c0.9-0.6,1.6-1.5,2.2-2.5l0.1-0.1c1.1-1.9,2.1-4.4,2.8-7.4
				c0-0.1,0.1-0.2,0.1-0.4c0.4-1.8,0.9-3.5,1.4-5.1V67c0.1-0.3,0.2-0.6,0.3-1L33,62.7z"/>
			<path fill-rule="evenodd" clip-rule="evenodd" fill="#AEAFB3" d="M34.4,66.2C34.4,66.3,34.4,66.3,34.4,66.2
				c0.3,0.7,0.4,1.6,0.3,2.7c-0.2,0-0.4,0.1-0.6,0.1L34,68.9L32.8,67l0.4-1.9C33.8,65.3,34.1,65.7,34.4,66.2z"/>
			<path fill-rule="evenodd" clip-rule="evenodd" fill="#5E5F64" d="M34.1,70.9l0.4-1c0.7-0.2,1.2-0.7,1.5-1.4
				c0.1-0.2,0.2-0.5,0.2-0.8V68c-0.1,0.1-0.1,0.3-0.1,0.5c-0.3,1-0.7,1.7-1.2,1.9c-1.3,4.6-3.2,8.6-5.7,12l-0.8,0.4
				c0.5-0.7,0.9-1.4,1.4-2.1l0.1-0.1C32,77.3,33.4,74,34.1,70.9z"/>
			<path fill-rule="evenodd" clip-rule="evenodd" fill="#FFFFFF" d="M29.8,80.8c-0.7,1.1-1.9,1.9-3.5,2.6c0.1-0.2,0.5-0.7,1.2-1.6
				c0.1-0.1,0.3-0.3,0.4-0.6c2.1-3.3,3.7-7.3,4.8-12l1,0.5V70l0.4,0.9c-0.7,3.1-2.1,6.4-4.2,9.8L29.8,80.8z M24.8,111.1L24.8,111.1
				L24.8,111.1c-0.4,0.3-0.7,0.4-0.9,0.4l3.1-5.2c1.3-2.5,1.8-5.1,1.6-7.9c0-0.1,0-0.2,0-0.3c0-0.3-0.1-0.4-0.1-0.6
				c0-0.1,0-0.1-0.1-0.2v-0.1l-0.1-0.6c0-0.1-0.1-0.3-0.1-0.4v-0.1c0-0.1,0-0.1,0-0.2c0-0.1,0-0.1,0-0.2v-0.1c0,0-0.1,0-0.1-0.1
				v-0.1c-0.2-1.1-0.5-2-1-2.8c-0.9-1.6-2-3.2-3.4-4.6c2.7,2.2,4.5,4.6,5.4,7.4l0.1,0.4c0,0.1,0,0.1,0,0.2c0,0.7,0.1,1.5,0.1,2.2
				c0,1.9-0.1,3.6-0.4,5.2c-0.7,2.5-1.9,4.9-3.4,7.2C25.2,110.6,25,110.8,24.8,111.1L24.8,111.1z"/>
			
				<linearGradient id="SVGID_2_" gradientUnits="userSpaceOnUse" x1="-39.7749" y1="51.5249" x2="-20.2249" y2="51.5249" gradientTransform="matrix(1.4949 0 0 1.4949 63.901 7.5002)">
				<stop  offset="0" style="stop-color:#9EA2A5"/>
				<stop  offset="0.4902" style="stop-color:#A1A0A5"/>
				<stop  offset="1" style="stop-color:#B2B6B7"/>
			</linearGradient>
			<path fill-rule="evenodd" clip-rule="evenodd" fill="url(#SVGID_2_)" d="M9,91.6c-0.2,0.2-0.3,0.3-0.3,0.3H8.6L8.5,92
				c-1.5,1-2.8,3.2-3.7,6.5c-0.3,1-0.6,2.1-0.8,3.4c0.1-1.2,0.3-2.3,0.5-3.4c0-0.3,0.1-0.7,0.2-1c0.6-2.1,1.6-4.1,3-6h0.1
				c1-1.5,2.4-2.7,4.1-3.7c0,0,0.1-0.1,0.1-0.1l1.4-0.9c0,0,0.1-0.1,0.2-0.1c0.8-0.4,1.8-0.7,3-0.8c1.4-0.1,2.6-0.3,3.6-0.5
				c0.9-0.2,1.9-0.7,3-1.6c0.1,0,0.2-0.1,0.3-0.2c-0.1,0.1-0.2,0.1-0.3,0.1l1.8-1c0.9-0.3,1.8-1.1,2.7-2.4c1.1-1.7,2.1-4.2,3.1-7.5
				l1.6-5.5l1.3,1.9v0.7l-1-0.5c-1,4.7-2.6,8.7-4.8,12c-0.1,0.2-0.3,0.4-0.4,0.6c-1.4,1.4-2.9,2.6-4.6,3.6c0,0-0.1,0-0.1,0.1v0.1
				c-0.1,0-0.3,0-0.5,0.1l-1.7,0.9l2.7-0.2c0,0.3-0.2,0.6-0.5,0.9c0.3,0.2,0.6,0.5,0.9,0.7c1.4,1.4,2.5,3,3.4,4.6
				c0.4,0.8,0.8,1.7,1,2.8v0.1c0,0,0,0.1,0.1,0.1v0.1c0,0.1,0,0.1,0,0.2c0,0.1,0,0.1,0,0.2v0.1v0.1c0,0.1,0,0.2,0.1,0.4
				c0,0.3,0,0.4,0,0.4c0-0.1-0.1-0.3-0.3-0.6c-0.1-0.3-0.1-0.7-0.2-1c-1.8-5.1-5.2-7.9-10.3-8.3c-3.2,0-6,1.5-8.3,4.3L9,91.6z"/>
			<path fill-rule="evenodd" clip-rule="evenodd" fill="#909092" d="M33.6,59.4l-0.3-0.4c0.3-1.3,0.6-2.7,0.9-4
				c0-0.2,0.1-0.5,0.1-0.7c0,0,0-0.1,0.1-0.2c0.2-1,0.4-2,0.5-2.9l0.1-0.4C40,31.2,44.8,15,49.6,2.3C42.9,21.5,38,38.8,34.7,54.2
				c0,0.1,0,0.2-0.1,0.3c0,0.1-0.1,0.3-0.1,0.6C34.2,56.6,33.9,58,33.6,59.4z M7.5,109.6c-1.1-0.6-2-1.8-2.6-3.7
				c-0.1-0.7-0.1-1.5-0.1-2.3c0-3.5,0.9-6.8,2.8-10c0.3-0.5,0.6-1,1-1.5v1.3c0,0-0.1,0.1-0.1,0.1c-2,3.1-3,6.7-2.8,10.8
				C5.9,106.4,6.5,108.2,7.5,109.6z"/>
			<path fill-rule="evenodd" clip-rule="evenodd" fill="#605E62" d="M42.4,61.1c-4.3-0.1-6.9-2.3-7.8-6.6c0-0.1,0.1-0.2,0.1-0.3
				c0,0.1,0,0.2,0.1,0.2c1,4.2,3.6,6.4,7.9,6.4L42.4,61.1z"/>
			
				<linearGradient id="SVGID_3_" gradientUnits="userSpaceOnUse" x1="-8.8564" y1="2.9351" x2="-16.281" y2="30.9286" gradientTransform="matrix(1.4949 0 0 1.4949 63.901 7.5002)">
				<stop  offset="0" style="stop-color:#A7A8AA"/>
				<stop  offset="1" style="stop-color:#9D9EA0"/>
				<stop  offset="1" style="stop-color:#000000"/>
			</linearGradient>
			<path fill-rule="evenodd" clip-rule="evenodd" fill="url(#SVGID_3_)" d="M38.3,63.6l-1.5,0.9l-2-3.2l-1.1-1.9
				c0.2-1.4,0.5-2.8,0.8-4.3c0.1-0.2,0.1-0.4,0.1-0.6c0.8,4.2,3.4,6.4,7.8,6.6l-3.4,2.1L38.3,63.6z"/>
			<polygon fill-rule="evenodd" clip-rule="evenodd" fill="#C8C7CC" points="34.8,61.2 33.9,60.9 33.6,60.3 33.6,59.4 			"/>
			<polygon fill-rule="evenodd" clip-rule="evenodd" fill="#FCFFFF" points="34.8,61.2 36.8,64.5 38.3,63.6 36.9,65.1 36.5,65.4 
				34.5,61.8 33.9,60.9 			"/>
			<polygon fill-rule="evenodd" clip-rule="evenodd" fill="#B5B6BA" points="38.9,63.2 42.4,61.1 42.7,60.9 43.1,60.6 43.5,60.4 
				39.5,63.3 			"/>
			<path fill-rule="evenodd" clip-rule="evenodd" fill="#B1B1B3" d="M40.4,63.3l2.8-1.9c0,0-0.1,0.1-0.1,0.1c0,0.1,0,0.2-0.1,0.4
				l-2.4,1.4L40.4,63.3z"/>
			<path fill-rule="evenodd" clip-rule="evenodd" fill="#929395" d="M43.3,61.5l-2.8,1.9l-4,2.7l-0.2,1.6h-0.1v-1.8l0.3-0.4l0.4-0.3
				l2.5-1.8l4-2.8c-0.1,0.3-0.2,0.6-0.2,0.9C43.3,61.4,43.3,61.4,43.3,61.5z"/>
			<polygon fill-rule="evenodd" clip-rule="evenodd" fill="#6A6A6C" points="39.5,63.3 36.9,65.1 38.3,63.6 38.9,63.2 			"/>
			<polygon fill-rule="evenodd" clip-rule="evenodd" fill="#525357" points="36.5,66 40.4,63.3 40.7,63.4 			"/>
			<polygon fill-rule="evenodd" clip-rule="evenodd" fill="#2C3033" points="34.7,64.9 34.1,64.5 34.1,64.4 34,64 			"/>
			<polygon fill-rule="evenodd" clip-rule="evenodd" fill="#4B4F52" points="34.6,63.2 36.2,65.8 35.8,66.3 34.7,64.9 34,64 
				33.5,61.4 			"/>
			<path fill-rule="evenodd" clip-rule="evenodd" fill="#76777B" d="M36.2,67.6c-0.1,0.3-0.1,0.6-0.2,0.8c-0.2,0.7-0.7,1.2-1.5,1.4
				l-0.4,1L33.7,70v-0.1v-0.7l0.3-0.2l0.1,0.1c0.2,0,0.4,0,0.6-0.1c0.6-0.2,1-0.9,1-2l-1.4-1.6l-0.1-0.9l0.6,0.4l1.1,1.4l0.4-0.5
				V67.6z"/>
			<path fill-rule="evenodd" clip-rule="evenodd" fill="#F8F7FC" d="M34.2,65.4l1.4,1.6c0,1.1-0.3,1.8-1,2c0.1-1.1,0-2-0.2-2.6
				c0,0-0.1,0-0.1-0.1L34.2,65.4z"/>
			<polygon fill-rule="evenodd" clip-rule="evenodd" fill="#65696C" points="36.2,65.8 34.6,63.2 34.5,61.8 36.5,65.4 			"/>
			<path fill-rule="evenodd" clip-rule="evenodd" fill="#7A7B7D" d="M22.8,85.6L22.8,85.6c0-0.1,0.1-0.1,0.1-0.1
				c1.7-1,3.2-2.2,4.6-3.6c-0.6,0.8-1,1.4-1.2,1.6c1.6-0.7,2.7-1.5,3.5-2.6c-0.5,0.7-0.9,1.4-1.4,2.1l0.8-0.4
				c-1,1.4-2.2,2.7-3.4,3.9l2.4-3.2c-1.5,0.8-3.1,1.5-4.9,2.2h-0.1C23.1,85.4,23,85.5,22.8,85.6z"/>
			<path fill-rule="evenodd" clip-rule="evenodd" fill="#EEEEF0" d="M13.4,86.7c-0.1,0-0.2,0.1-0.3,0.1c0-0.1,0.1-0.2,0.1-0.3
				c0.6-0.6,2.1-1.2,4.6-1.7c2.5-0.5,4.3-0.9,5.3-1.3c0.1,0,0.2-0.1,0.3-0.1c-0.1,0.1-0.2,0.2-0.3,0.2c-1.1,0.8-2.1,1.4-3,1.6
				c-1,0.2-2.2,0.4-3.6,0.5c-1.1,0.1-2.1,0.4-3,0.8C13.6,86.6,13.5,86.7,13.4,86.7z"/>
			
				<linearGradient id="SVGID_4_" gradientUnits="userSpaceOnUse" x1="43.6299" y1="38.8145" x2="44.1759" y2="38.8145" gradientTransform="matrix(0.4107 1.4373 -1.4453 0.3829 63.9006 7.5002)">
				<stop  offset="0" style="stop-color:#414247"/>
				<stop  offset="1" style="stop-color:#626367"/>
			</linearGradient>
			<path fill-rule="evenodd" clip-rule="evenodd" fill="url(#SVGID_4_)" d="M25.9,86.4c-0.3-0.8-1.3-1.1-3-0.8h-0.1
				c0.2-0.1,0.3-0.2,0.4-0.3h0.1c1.8-0.6,3.4-1.4,4.9-2.2L25.9,86.4L25.9,86.4z"/>
			<path fill-rule="evenodd" clip-rule="evenodd" fill="#F7F9F8" d="M22.9,85.6c0.2,0.2,0.4,0.5,0.4,0.7l-2.7,0.2l1.7-0.9
				C22.5,85.6,22.6,85.6,22.9,85.6L22.9,85.6z"/>
			
				<linearGradient id="SVGID_5_" gradientUnits="userSpaceOnUse" x1="-27.5249" y1="52.9707" x2="-25.4749" y2="52.9707" gradientTransform="matrix(1.4949 0 0 1.4949 63.901 7.5002)">
				<stop  offset="0" style="stop-color:#BCC0C1"/>
				<stop  offset="1" style="stop-color:#626367"/>
			</linearGradient>
			<path fill-rule="evenodd" clip-rule="evenodd" fill="url(#SVGID_5_)" d="M22.9,85.6c1.7-0.2,2.7,0,3,0.8
				c-0.1,0.1-0.3,0.2-0.4,0.3c-0.2,0.7-0.6,1.1-1.2,1.1c-0.4,0-0.9-0.2-1.6-0.6c0.3-0.3,0.5-0.5,0.5-0.9
				C23.2,86.1,23.1,85.9,22.9,85.6z"/>
			<path fill-rule="evenodd" clip-rule="evenodd" fill="#3D3A41" d="M25.5,86.7c1,2,1.8,3.8,2.4,5.4c-1.2-2-2.4-3.4-3.6-4.3
				C24.9,87.8,25.3,87.4,25.5,86.7z"/>
			<path fill-rule="evenodd" clip-rule="evenodd" fill="#33383C" d="M22.7,87.3c0.6,0.4,1.2,0.6,1.6,0.6c1.2,0.8,2.4,2.3,3.6,4.3
				c0.5,1.2,0.8,2.3,1.1,3.2c-0.9-2.8-2.7-5.2-5.4-7.4C23.4,87.7,23.1,87.5,22.7,87.3z"/>
			
				<linearGradient id="SVGID_6_" gradientUnits="userSpaceOnUse" x1="-24.2339" y1="56.0391" x2="-23.8726" y2="58.4624" gradientTransform="matrix(1.4949 0 0 1.4949 63.901 7.5002)">
				<stop  offset="0" style="stop-color:#A3A4A6"/>
				<stop  offset="1" style="stop-color:#C2C3C5"/>
			</linearGradient>
			<path fill-rule="evenodd" clip-rule="evenodd" fill="url(#SVGID_6_)" d="M27.9,92.1c-0.6-1.5-1.4-3.3-2.4-5.4
				c1.9,2.2,3.2,4.5,4,6.8c0.3,1.9,0.3,3.4-0.1,4.5c-0.1-0.7-0.2-1.5-0.3-2.2c0,0,0-0.1,0-0.2L29,95.3
				C28.7,94.4,28.3,93.3,27.9,92.1z"/>
			<path fill-rule="evenodd" clip-rule="evenodd" fill="#A5A3A8" d="M28.2,96.2c0,0.2,0,0.3,0.1,0.4C28.2,96.5,28.2,96.4,28.2,96.2
				L28.2,96.2z M28.2,96.7l0.1,0.6v0.1c0,0,0.1,0.1,0.1,0.2c0,0.1,0,0.3,0.1,0.6c0,0.1,0,0.2,0,0.3c0.2,2.8-0.3,5.4-1.6,7.9
				l-3.1,5.2c-0.1,0-0.2-0.1-0.1-0.4c0.8-1.1,1.6-2.3,2.2-3.4c0.3-0.5,0.6-1.1,0.8-1.6c1.2-2.7,1.7-5.4,1.5-8.1
				c0-0.5-0.1-1.1-0.3-1.7c0.1,0.2,0.2,0.4,0.3,0.6C28.3,97,28.3,96.9,28.2,96.7z"/>
			<path fill-rule="evenodd" clip-rule="evenodd" fill="#1B1C1E" d="M23.2,111.3c0.7-0.8,1.3-1.7,1.9-2.7c0.7-1.2,1.4-2.6,1.9-4.1
				c2-6.7,0.4-11.8-4.9-15.5c-3.9-1.7-7.6-1.2-11,1.5c-0.9,0.9-1.8,1.8-2.5,2.8V92c0-0.1,0.2-0.2,0.4-0.4l0.1-0.1
				c2.3-2.8,5.1-4.3,8.3-4.3c5.1,0.4,8.5,3.2,10.3,8.3c0.1,0.3,0.2,0.7,0.2,1c0.1,0.6,0.2,1.2,0.3,1.7c0.2,2.6-0.3,5.3-1.5,8.1
				c-0.2,0.5-0.5,1-0.8,1.6c-0.6,1.1-1.3,2.2-2.2,3.4L23.2,111.3z"/>
			<path fill-rule="evenodd" clip-rule="evenodd" fill="#7D7D7F" d="M29.4,98c0.3,4.3-0.7,8.2-3.3,11.8c-0.1,0.2-0.3,0.4-0.4,0.5
				c0.1-0.2,0.3-0.4,0.4-0.6c1.2-1.8,2.1-4,2.7-6.5c0.3-1.6,0.4-3.3,0.4-5.2c0-0.7,0-1.4-0.1-2.2C29.2,96.5,29.3,97.3,29.4,98z"/>
			
				<linearGradient id="SVGID_7_" gradientUnits="userSpaceOnUse" x1="-31.5713" y1="54.1001" x2="-31.5713" y2="61.5001" gradientTransform="matrix(1.4949 0 0 1.4949 63.901 7.5002)">
				<stop  offset="0" style="stop-color:#727679"/>
				<stop  offset="1" style="stop-color:#C3C3C5"/>
			</linearGradient>
			<path fill-rule="evenodd" clip-rule="evenodd" fill="url(#SVGID_7_)" d="M15.5,113.2c1.1,0.4,2.4,0.3,3.9-0.4c4-2.6,6.4-6,7.2-10
				c0.4-2.2,0.4-4.6,0-7.1c-0.8-2.5-2.2-4.3-4.1-5.4c-2.9-1.6-6.1-1.7-9.5-0.2c-2.5,1.3-4.5,3.7-6,7.1c-1.8,5.6-0.8,10.1,2.8,13.7
				c1.3,1.4,2.9,2.1,4.8,2.2C14.9,113.2,15.2,113.2,15.5,113.2z M8.6,93.4c0.7-1,1.5-1.9,2.5-2.8c3.4-2.7,7.1-3.2,11-1.5
				c5.3,3.6,7,8.8,4.9,15.5c-0.5,1.5-1.2,2.9-1.9,4.1c-1.6,2.3-4,4.1-7.1,5.4l-1.6,0.1c-2.1,0-3.9-0.5-5.5-1.3
				c-1.2-0.8-2.3-1.8-3.1-2.9l-0.3-0.3c-0.9-1.4-1.6-3.2-1.9-5.2c-0.1-4.1,0.8-7.7,2.8-10.8C8.5,93.5,8.5,93.4,8.6,93.4z"/>
			<path fill-rule="evenodd" clip-rule="evenodd" fill="#1C1B20" d="M6.3,112.1l-0.7-0.2c-0.2-0.3-0.4-0.7-0.6-1.1
				c0-0.1-0.1-0.2-0.1-0.3c-0.7-1.4-1.2-3.1-1.4-4.9C2.5,98,5,91.9,11.1,87.4l1-0.3l-0.1,0.6c-1.7,1-3.1,2.2-4.1,3.7H7.7
				c-1.3,1.8-2.3,3.8-3,6c-0.1,0.3-0.2,0.6-0.2,1c-0.2,1.1-0.4,2.2-0.5,3.4c-0.1,1.9,0,4,0.4,6.1c0.3,0.9,0.6,1.8,1,2.5
				c0.1,0.1,0.1,0.2,0.1,0.3C5.8,111.2,6,111.7,6.3,112.1z"/>
			<path fill-rule="evenodd" clip-rule="evenodd" fill="#9B9B9B" d="M9.3,88.1c-2.4,2.3-4.2,4.6-5.2,6.9c0.9-2.3,2.2-4.2,3.9-5.8
				C8.4,88.8,8.9,88.4,9.3,88.1z"/>
			<path fill-rule="evenodd" clip-rule="evenodd" fill="#FAFEFF" d="M4.9,105.9c0.3,2.4,1.1,4.6,2.4,6.4c0.3,0.8,0,0.8-1-0.1
				c-0.2-0.4-0.5-0.8-0.7-1.3c0-0.1-0.1-0.2-0.1-0.3c-0.3-0.7-0.7-1.6-1-2.5c-0.4-2.1-0.5-4.2-0.4-6.1c0.2-1.2,0.5-2.4,0.8-3.4
				C5.7,95.1,7,93,8.5,92l0.1-0.1h0.1c0,0,0.1-0.1,0.3-0.3C8.8,91.8,8.6,92,8.6,92c-0.4,0.4-0.7,0.9-1,1.5c-1.9,3.2-2.9,6.5-2.8,10
				C4.7,104.3,4.8,105.1,4.9,105.9z"/>
			<path fill-rule="evenodd" clip-rule="evenodd" fill="#4F5356" d="M4.9,105.9c0.6,1.9,1.5,3.1,2.6,3.7l0.3,0.3
				c0.8,1.1,1.8,2.1,3.1,2.9h-0.1l-0.1,0.4l-0.7,1.5L9.8,115v-0.1c-1-0.8-1.8-1.7-2.5-2.7C6,110.4,5.2,108.3,4.9,105.9z"/>
			<path fill-rule="evenodd" clip-rule="evenodd" fill="#70706E" d="M16.4,114.2c-1.9,0.5-3.9,0.1-5.8-1l0.1-0.4h0.1
				C12.4,113.7,14.3,114.1,16.4,114.2z"/>
			<path fill-rule="evenodd" clip-rule="evenodd" fill="#18171C" d="M25.5,110.6L25.5,110.6c-0.1,0.2-0.3,0.4-0.4,0.6
				c0,0,0,0-0.1,0.1c-0.1,0-0.1,0.1-0.1,0.2c-1.9,2.6-4.1,4.3-6.6,5.2c-1.1,0.4-2.3,0.7-3.6,0.7c-3.3,0.1-6.2-1.5-8.7-4.9
				c-0.1-0.2-0.3-0.4-0.4-0.7l0.7,0.2c1.7,2.8,4,4.4,6.9,4.9c1.1,0.1,2.2,0,3.4-0.3c0.1,0,0.2,0,0.3-0.1c0.7-0.2,1.4-0.5,2.2-0.8
				c1.8-0.9,3.8-2.4,5.8-4.4c0,0,0-0.1,0.1-0.1c0-0.1,0.1-0.1,0.1-0.1C25.2,111,25.3,110.8,25.5,110.6z"/>
			<path fill-rule="evenodd" clip-rule="evenodd" fill="#A6A4A7" d="M9.8,115c3.3,1.8,6.6,1.7,9.9-0.2l-0.7,1
				c-0.7,0.3-1.5,0.6-2.2,0.8c-0.1,0-0.2,0.1-0.3,0.1c-1.1,0.3-2.3,0.4-3.4,0.3c-2.9-0.5-5.2-2.1-6.9-4.9c1,0.9,1.3,1,1,0.1
				C7.9,113.2,8.8,114.1,9.8,115L9.8,115z M19.2,114.8c0.1,0,0.2-0.1,0.2-0.1v0.1L19.2,114.8z"/>
			<path fill-rule="evenodd" clip-rule="evenodd" fill="#99979B" d="M9.9,114.7c2.7,1.7,5.9,1.8,9.3,0.1l0.2-0.1v-0.1
				c0.2,0,0.4-0.2,0.6-0.3l-0.2,0.3h0.1c0,0-0.1,0.1-0.1,0.1c-3.3,1.9-6.7,2-9.9,0.2L9.9,114.7z"/>
			
				<linearGradient id="SVGID_8_" gradientUnits="userSpaceOnUse" x1="-35.9634" y1="70.8291" x2="-29.8314" y2="72.453" gradientTransform="matrix(1.4949 0 0 1.4949 63.901 7.5002)">
				<stop  offset="0" style="stop-color:#4F5356"/>
				<stop  offset="7.843138e-002" style="stop-color:#4F5356"/>
				<stop  offset="0.1569" style="stop-color:#E2E1E6"/>
				<stop  offset="0.4902" style="stop-color:#EBEAEF"/>
				<stop  offset="0.8353" style="stop-color:#CBCCCF"/>
				<stop  offset="0.8784" style="stop-color:#585C5F"/>
				<stop  offset="1" style="stop-color:#3E4245"/>
			</linearGradient>
			<path fill-rule="evenodd" clip-rule="evenodd" fill="url(#SVGID_8_)" d="M19.2,114.8c-3.5,1.6-6.6,1.6-9.3-0.1l0.7-1.5
				c1.9,1.1,3.8,1.4,5.8,1l1.6-0.1c0.2,0.1,0.7,0.1,1.4,0l0.1,0.7C19.4,114.7,19.3,114.8,19.2,114.8z"/>
			<path fill-rule="evenodd" clip-rule="evenodd" fill="#C1C2C6" d="M19.7,114.8c0,0,0.1,0,0.1-0.1L19.7,114.8l0.3-0.4
				c0,0,0.1-0.1,0.2-0.1c0.7-0.4,1.6-1.1,2.8-2.1c0.2-0.3,0.5-0.7,0.7-1c0,0.2,0,0.4,0.1,0.4c0.2,0,0.5-0.1,0.9-0.4h-0.1l0.1-0.1
				c0.2-0.2,0.5-0.4,0.7-0.5c-0.1,0.2-0.3,0.4-0.4,0.6c0,0-0.1,0-0.1,0.1c0,0-0.1,0.1-0.1,0.1c-2,2-4,3.5-5.8,4.4L19.7,114.8z"/>
			<path fill-rule="evenodd" clip-rule="evenodd" fill="#AEAEB0" d="M28.8,103.2c-0.5,2.5-1.4,4.7-2.7,6.5c-0.1,0.2-0.2,0.4-0.4,0.6
				c0,0-0.1,0.1-0.1,0.2c0,0,0,0,0,0.1l0,0.1v-0.1c-0.2,0.1-0.4,0.3-0.7,0.5l0.1-0.1c0.1-0.2,0.3-0.4,0.4-0.6
				C26.9,108.1,28,105.7,28.8,103.2z"/>
			<path fill-rule="evenodd" clip-rule="evenodd" fill="#171B1C" d="M20,114.4c-0.2,0.1-0.4,0.2-0.6,0.3c0.2-0.2,0.5-0.4,0.8-0.5
				c1-0.8,2-1.8,2.9-2.8l0.6-0.2c-0.2,0.3-0.5,0.6-0.7,1c-1.1,0.9-2.1,1.6-2.8,2.1C20.2,114.3,20.1,114.3,20,114.4z"/>
			
				<linearGradient id="SVGID_9_" gradientUnits="userSpaceOnUse" x1="-27.8877" y1="69.9375" x2="-28.6377" y2="69.1875" gradientTransform="matrix(1.4949 0 0 1.4949 63.901 7.5002)">
				<stop  offset="0" style="stop-color:#373B3E"/>
				<stop  offset="1" style="stop-color:#717578"/>
			</linearGradient>
			<path fill-rule="evenodd" clip-rule="evenodd" fill="url(#SVGID_9_)" d="M25,108.6c-0.5,1-1.2,1.9-1.9,2.7c-0.9,1-1.9,2-2.9,2.8
				c-0.3,0.2-0.6,0.3-0.8,0.5l-0.1-0.7c-0.7,0.1-1.2,0.1-1.4,0C21,112.7,23.4,110.9,25,108.6z"/>
			<path fill-rule="evenodd" clip-rule="evenodd" fill="#A1A1A3" d="M15.5,113.2c1-0.1,2.1-0.3,3.3-0.7c3.1-1.3,5.7-4.5,7.8-9.6
				c-0.8,4-3.2,7.4-7.2,10C18,113.5,16.7,113.6,15.5,113.2z"/>
		</g>
	</g>
	<g>
		<g>
			<path fill-rule="evenodd" clip-rule="evenodd" fill="#FFFFFF" d="M37.7,28.7c-0.2,0.1-0.4,0.2-0.6,0.2c-3,0.9-4.6,0.9-4.9-0.2
				L31.2,23c-1-7-1.4-12.4-1-16.2c0-0.5,0.1-1.1,0.2-1.6c0.1-0.3,0.1-0.7,0.2-1c0.1,0.3,0.2,0.6,0.3,0.9
				C33.3,12.7,35.6,20.6,37.7,28.7z M75.3,102.4c-0.1-2.1-0.7-4.2-1.6-6.4l0.1-0.9c0.3,0.4,0.5,0.9,0.7,1.5c0.7,1.5,1.1,3.3,1.3,5.2
				L75.3,102.4z"/>
			
				<linearGradient id="SVGID_10_" gradientUnits="userSpaceOnUse" x1="-15.2925" y1="14.6123" x2="-20.3921" y2="15.0417" gradientTransform="matrix(1.4949 0 0 1.4949 63.901 7.5002)">
				<stop  offset="0" style="stop-color:#636468"/>
				<stop  offset="1" style="stop-color:#A1A0A5"/>
			</linearGradient>
			<path fill-rule="evenodd" clip-rule="evenodd" fill="url(#SVGID_10_)" d="M30.1,6.8c-0.5,3.6-0.2,9,0.7,16.2v0.1
				c0,0.3,0.1,0.6,0.1,1l1.9,9.4l1.3,8.3c0.1,0.9,0.3,1.7,0.4,2.6l2.1,13.8v0.2l-0.7-0.8l-3.9-20.5C28.4,16.3,28,4.4,30.7,1.4
				c4.6,14.3,8.7,28.6,12.4,42.8c-0.3,0.2-0.6,0.3-0.9,0.1c-0.3,0-0.6-0.3-0.9-0.7c-1.1-5.1-2.3-10-3.6-14.9
				c-2.1-8.2-4.4-16-6.9-23.6c-0.1-0.3-0.2-0.6-0.3-0.9c-0.1,0.3-0.2,0.7-0.2,1C30.2,5.8,30.2,6.3,30.1,6.8z"/>
			<path fill-rule="evenodd" clip-rule="evenodd" fill="#E4E5E9" d="M37.7,28.7c1.2,4.8,2.4,9.8,3.6,14.9c0.2,0.4,0.5,0.7,0.9,0.7
				c-0.2,0-0.4,0-0.6,0c-0.4,0-0.7-0.2-0.8-0.4c0-0.1-0.1-0.2-0.1-0.3L37.1,29C37.3,28.9,37.5,28.8,37.7,28.7z"/>
			<path fill-rule="evenodd" clip-rule="evenodd" fill="#A3A6AA" d="M32.9,33.5l2,10.2l0.4,1.6l0.1,1L35,46.4l-0.3-2
				c-0.1-0.9-0.3-1.7-0.4-2.6L32.9,33.5z"/>
			
				<linearGradient id="SVGID_11_" gradientUnits="userSpaceOnUse" x1="-18.3735" y1="13.7163" x2="-17.4735" y2="19.6413" gradientTransform="matrix(1.4949 0 0 1.4949 63.901 7.5002)">
				<stop  offset="0" style="stop-color:#FFFFFF"/>
				<stop  offset="0.2588" style="stop-color:#FAFBFB"/>
				<stop  offset="0.3451" style="stop-color:#D6D7DA"/>
				<stop  offset="1" style="stop-color:#D3D4D8"/>
			</linearGradient>
			<path fill-rule="evenodd" clip-rule="evenodd" fill="url(#SVGID_11_)" d="M43.1,44.2c0,0.1,0.1,0.2,0.1,0.4l-1,1.3v-0.2
				c-0.2-0.4-0.4-0.6-0.7-0.7c-0.2-0.1-0.6-0.1-1-0.1l-2.2,0.4c-0.2,0.1-0.4,0.1-0.5,0.1c-1.3,0.2-2.1-0.4-2.5-1.7l-3-14.9
				c0.2,1.1,1.9,1.2,4.9,0.2l3.6,14.6c0,0.1,0,0.2,0.1,0.3c0.1,0.2,0.4,0.4,0.8,0.4c0.1,0,0.3,0,0.6,0
				C42.5,44.4,42.8,44.4,43.1,44.2z"/>
			<path fill-rule="evenodd" clip-rule="evenodd" fill="#939498" d="M32.9,33.5L31,24.1c0-0.3-0.1-0.7-0.1-1V23
				c-1-7.2-1.2-12.6-0.7-16.2c-0.3,3.8,0,9.2,1,16.2l1.1,5.7l3,14.9l-0.4,0.1L32.9,33.5z"/>
			
				<linearGradient id="SVGID_12_" gradientUnits="userSpaceOnUse" x1="-19.3623" y1="24.7754" x2="-18.9373" y2="24.7754" gradientTransform="matrix(1.4949 0 0 1.4949 63.901 7.5002)">
				<stop  offset="0" style="stop-color:#39484F"/>
				<stop  offset="1" style="stop-color:#8D9194"/>
			</linearGradient>
			<polygon fill-rule="evenodd" clip-rule="evenodd" fill="url(#SVGID_12_)" points="35.3,43.7 35.6,45.3 35.3,45.4 34.9,43.8 			
				"/>
			
				<linearGradient id="SVGID_13_" gradientUnits="userSpaceOnUse" x1="-19.1499" y1="25.9502" x2="-14.5498" y2="25.9502" gradientTransform="matrix(1.4949 0 0 1.4949 63.901 7.5002)">
				<stop  offset="0" style="stop-color:#39484F"/>
				<stop  offset="1" style="stop-color:#8D9194"/>
			</linearGradient>
			<path fill-rule="evenodd" clip-rule="evenodd" fill="url(#SVGID_13_)" d="M41.7,47.3c-0.3-0.8-1.1-1-2.4-0.6
				c-2.5,0.5-3.8,0.4-3.9-0.3l-0.1-1l0.3-0.1c0.1,0.5,0.8,0.7,2.2,0.6c0.5-0.1,1.1-0.1,1.7-0.3c0.3-0.1,0.6-0.2,0.9-0.2
				c0.8,0,1.3,0.3,1.6,1c0,0.2,0.1,0.4,0.1,0.7L41.7,47.3z"/>
			<path fill-rule="evenodd" clip-rule="evenodd" fill="#898D91" d="M42.2,47l2.1,9l-2.5-8.6c0-0.1-0.1-0.2-0.1-0.2L42.2,47z"/>
			
				<linearGradient id="SVGID_14_" gradientUnits="userSpaceOnUse" x1="-11.6343" y1="39.1948" x2="-15.2153" y2="31.6977" gradientTransform="matrix(1.4949 0 0 1.4949 63.901 7.5002)">
				<stop  offset="0" style="stop-color:#B1B2B4"/>
				<stop  offset="1" style="stop-color:#F5F5F7"/>
			</linearGradient>
			<path fill-rule="evenodd" clip-rule="evenodd" fill="url(#SVGID_14_)" d="M42.4,68.6l0.1-0.2l2.9-5.3c0-0.9,0-2-0.3-3.3
				c-0.1-0.4-0.2-0.8-0.3-1.3l-0.6-2.5l-2.1-9c0-0.2-0.1-0.5-0.1-0.7l0.2-0.4l3.9,17L46,63.3c0,0.1,0,0.1-0.1,0.1
				c-0.5,1-1.1,2-1.6,2.9c-0.1,0.3-0.3,0.7-0.5,1l1-0.8L43,69.2C42.9,69,42.7,68.8,42.4,68.6z"/>
			<path fill-rule="evenodd" clip-rule="evenodd" fill="#E6E4E5" d="M42.2,45.9L42,46.4c-0.3-0.7-0.8-1-1.6-1
				c-0.3,0-0.6,0.1-0.9,0.2c-0.6,0.1-1.2,0.2-1.7,0.3c-1.4,0.1-2.1-0.1-2.2-0.6l-0.3-1.6c0.3,1.3,1.2,1.9,2.5,1.7
				c0.1,0,0.3,0,0.5-0.1l2.2-0.4c0.4,0,0.7,0,1,0.1c0.3,0.1,0.5,0.3,0.7,0.7V45.9z"/>
			
				<linearGradient id="SVGID_15_" gradientUnits="userSpaceOnUse" x1="-11.5464" y1="34.3579" x2="-20.9462" y2="31.7028" gradientTransform="matrix(1.4949 0 0 1.4949 63.901 7.5002)">
				<stop  offset="0" style="stop-color:#C9CED2"/>
				<stop  offset="0.4392" style="stop-color:#6D787A"/>
				<stop  offset="1" style="stop-color:#B5B6BA"/>
			</linearGradient>
			<path fill-rule="evenodd" clip-rule="evenodd" fill="url(#SVGID_15_)" d="M42.5,68.4c-1.5-0.9-2.8-1.8-3.7-2.8
				c-0.3-0.3-0.5-0.7-0.7-1l-1-5.7L35,46.4l0.4-0.1c0,0.7,1.3,0.8,3.9,0.3c1.3-0.4,2.1-0.2,2.4,0.6c0,0,0,0.1,0.1,0.2l2.5,8.6
				l0.6,2.5c0.1,0.4,0.2,0.9,0.3,1.3c0.2,1.2,0.3,2.3,0.3,3.3L42.5,68.4z"/>
			
				<linearGradient id="SVGID_16_" gradientUnits="userSpaceOnUse" x1="-14.5127" y1="31.2373" x2="-11.2876" y2="31.2373" gradientTransform="matrix(1.4949 0 0 1.4949 63.901 7.5002)">
				<stop  offset="0" style="stop-color:#CFCED3"/>
				<stop  offset="1" style="stop-color:#CDCDCF"/>
			</linearGradient>
			<path fill-rule="evenodd" clip-rule="evenodd" fill="url(#SVGID_16_)" d="M47,63.8l-0.8-0.5V63L46.1,63l-3.9-17l1-1.3
				c1.3,4.9,2.6,11.2,3.8,19.1V63.8L47,63.8z"/>
			<polygon fill-rule="evenodd" clip-rule="evenodd" fill="#2A2B2D" points="37.1,61.2 36.8,61.7 35.9,57.7 36.7,58.5 			"/>
			<polygon fill-rule="evenodd" clip-rule="evenodd" fill="#8B8C90" points="35,46.4 37.1,59 36.7,58.5 36.7,58.3 34.6,44.4 			"/>
			<path fill-rule="evenodd" clip-rule="evenodd" fill="#33373A" d="M37.7,64.7l-0.6-3.4l-0.4-2.8l0.4,0.5l1,5.7
				c0.2,0.3,0.4,0.6,0.7,1l-0.1,0.2c-0.1-0.2-0.3-0.3-0.5-0.5c-0.1-0.1-0.2-0.3-0.3-0.4C37.8,64.8,37.8,64.8,37.7,64.7L37.7,64.7z"
				/>
			<polygon fill-rule="evenodd" clip-rule="evenodd" fill="#616163" points="37.1,61.2 37.7,64.7 37.1,63.3 36.8,61.7 			"/>
			
				<linearGradient id="SVGID_17_" gradientUnits="userSpaceOnUse" x1="-13.6123" y1="39.9624" x2="5.463" y2="59.0377" gradientTransform="matrix(1.4949 0 0 1.4949 63.901 7.5002)">
				<stop  offset="0" style="stop-color:#DAD9DE"/>
				<stop  offset="0.5255" style="stop-color:#D3D1D4"/>
				<stop  offset="1" style="stop-color:#C9CACC"/>
			</linearGradient>
			<path fill-rule="evenodd" clip-rule="evenodd" fill="url(#SVGID_17_)" d="M46.7,64.2L46.7,64.2l0.3-0.4l0,0l0,0v0.1l2.4,10.3
				c0.2,0.9,0.5,1.8,0.8,2.6c0.8,2.4,2,4.4,3.5,5.8c1.3,0.9,2.9,1.6,4.9,2.1c5.4,0.7,9.3,2.1,11.7,4.3c1.4,1,2.6,2.2,3.6,3.6
				l-0.4,1.6c-1.3-2-3-3.7-5.2-5.2c-0.2-0.1-0.4-0.2-0.5-0.3l-0.7-0.2l-4-1.3c-3.5-0.7-6.8-1.8-9.8-3.4c-0.2-0.3-0.4-0.4-0.5-0.6
				c-0.1-0.2-0.3-0.3-0.4-0.4c0-0.1,0-0.1-0.1-0.1c-0.1-0.2-0.3-0.4-0.4-0.5c-0.3-0.4-0.6-0.8-0.8-1.3c-0.5-1.3-1-2.6-1.4-4
				c-1.3-3.8-2.3-8.1-3-12.7C46.7,64.3,46.7,64.3,46.7,64.2z"/>
			<path fill-rule="evenodd" clip-rule="evenodd" fill="#616065" d="M44.1,70.7l-0.9-1c0,0,0-0.1-0.1-0.2S43,69.3,43,69.2l1.6-2.7
				l1.6-2.5l-0.1-0.7l0.8,0.5l-0.3,0.3v0.1l-0.2,0.3l-0.6,1l-2.6,4l1.1,1L44.1,70.7z"/>
			<path fill-rule="evenodd" clip-rule="evenodd" fill="#96979B" d="M53.3,83.9c-0.2-0.2-0.4-0.3-0.6-0.4l-0.1-0.1
				c-0.1-0.1-0.3-0.3-0.4-0.5c-0.2-0.1-0.3-0.3-0.4-0.4l-0.1-0.1c-0.3-0.4-0.5-0.8-0.7-1.2c0,0,0-0.1-0.1-0.1
				c-2.1-5-3.6-10.5-4.4-16.6l0.2-0.3c0,0.1,0,0.2,0,0.2c0.7,4.6,1.7,8.9,3,12.7c0.4,1.3,0.9,2.7,1.4,4c0.2,0.4,0.5,0.9,0.8,1.3
				c0.1,0.1,0.2,0.3,0.4,0.5c0,0,0.1,0,0.1,0.1c0.1,0.1,0.2,0.2,0.4,0.4C52.9,83.4,53.1,83.6,53.3,83.9z"/>
			<path fill-rule="evenodd" clip-rule="evenodd" fill="#FFFEFF" d="M46.2,63.3l0.1,0.7l-1.6,2.5l-1,0.8c0.2-0.3,0.4-0.7,0.5-1
				c0.5-0.9,1.1-1.9,1.6-2.9c0,0,0.1-0.1,0.1-0.1l0.1-0.3l0.1,0.1V63.3z"/>
			
				<linearGradient id="SVGID_18_" gradientUnits="userSpaceOnUse" x1="-12.625" y1="44.9004" x2="-6.675" y2="44.9004" gradientTransform="matrix(1.4949 0 0 1.4949 63.901 7.5002)">
				<stop  offset="0" style="stop-color:#FDFEFF"/>
				<stop  offset="1" style="stop-color:#4F4E53"/>
			</linearGradient>
			<path fill-rule="evenodd" clip-rule="evenodd" fill="url(#SVGID_18_)" d="M46.5,64.5c0.8,6.1,2.3,11.6,4.4,16.6
				c0.1,0,0.1,0.1,0.1,0.1c0.2,0.4,0.4,0.8,0.7,1.2l0.1,0.1c0.1,0.1,0.2,0.3,0.4,0.4c0.1,0.2,0.3,0.4,0.4,0.5l0.1,0.1
				c0.4,0.5,1,0.9,1.6,1.3h-0.4h-0.5c-0.5-0.3-1.1-0.8-1.6-1.5c-0.2-0.2-0.3-0.4-0.4-0.6v-0.1c-0.3-0.3-0.6-0.8-0.8-1.3
				c-1.5-2.8-2.8-6.9-3.9-12.3l-0.8,0.9l-1.2,1.3l-0.4-0.5l0.3-0.2l1.9-1.8l-0.4-3.2L46.5,64.5z"/>
			<path fill-rule="evenodd" clip-rule="evenodd" fill="#707173" d="M38.9,65.6c0.9,0.9,2.1,1.9,3.7,2.8l-0.1,0.2
				c-1.2-0.6-2.5-1.5-3.7-2.8L38.9,65.6z"/>
			<path fill-rule="evenodd" clip-rule="evenodd" fill="#ADB1B4" d="M54.8,90.8c0.6-0.7,1.4-1.3,2.2-1.8c0.4-0.3,0.9-0.5,1.5-0.7
				c-0.7,0-1.3-0.1-1.9-0.3c-0.8-0.2-1.5-0.5-2.2-0.9c-2.8-1.9-4.9-5.3-6.4-10.1c-0.8-3.6-1.7-5.4-2.6-5.3c-0.5-0.1-0.4,1.1,0.4,3.7
				c0,0.1,0.1,0.2,0.1,0.3c0.8,3.1,2.2,6,4.2,8.7c0.9,1.4,2.3,2.8,4.3,4l-1,0.1c-3.9-1.9-6.9-7.1-9-15.5c-0.3-1.3-0.6-2.5-1-3.4
				l0.9,1l0.4,0.5l0.1,0.2l1-1.4l0.8-0.9c1.1,5.4,2.4,9.5,3.9,12.3c0.2,0.5,0.5,0.9,0.8,1.3v0.1c0.1,0.2,0.3,0.4,0.4,0.6
				c0.5,0.6,1.1,1.1,1.6,1.5c1.6,1.9,3.8,3,6.4,3.1h0.1c0,0,0.1,0,0.2,0h0.1l1.1,0.5c-2,0.1-3.8,0.9-5.3,2.3
				c-0.3,0.3-0.6,0.6-0.9,0.9c-0.6,0.6-1.1,1.4-1.6,2.2c-0.5,0.3-0.9,0.6-1.2,1C52.9,93.3,53.7,91.9,54.8,90.8z"/>
			<path fill-rule="evenodd" clip-rule="evenodd" fill="#37383C" d="M45.7,69.9l-1,1.4l-0.1-0.2L45.7,69.9z M76.2,107
				c0,0.5-0.1,1-0.2,1.4c-0.4,2-1.2,3.8-2.5,5.3l-1.3,0.8c0.1-0.1,0.2-0.2,0.3-0.3c1.4-1.6,2.4-3.5,2.9-5.5c0.1-0.4,0.2-0.8,0.2-1.2
				L76.2,107z"/>
			<polygon fill-rule="evenodd" clip-rule="evenodd" fill="#B0B4B7" points="44.4,70.4 43.3,69.4 45.9,65.4 46.3,68.6 			"/>
			<path fill-rule="evenodd" clip-rule="evenodd" fill="#323337" d="M58.4,88.3l-2,0.1l-2,0.1l-0.2-0.1c-1.9-1.2-3.4-2.6-4.3-4
				c-2-2.7-3.4-5.7-4.2-8.7c0-0.1,0-0.2-0.1-0.3c-0.8-2.6-1-3.8-0.4-3.7c0.9,0,1.8,1.7,2.6,5.3c1.5,4.8,3.6,8.1,6.4,10.1
				c0.6,0.4,1.4,0.7,2.2,0.9C57.1,88.1,57.7,88.2,58.4,88.3z"/>
			<path fill-rule="evenodd" clip-rule="evenodd" fill="#747579" d="M56.9,89l-1.6,0.1l1.1-0.8l2-0.1C57.9,88.5,57.4,88.7,56.9,89z"
				/>
			<path fill-rule="evenodd" clip-rule="evenodd" fill="#959597" d="M53.9,84.8c0,0.1,0.1,0.2,0.2,0.3c1.5,1.2,3.6,2,6.3,2.3h0.2
				c0.4,0,0.9,0.1,1.3,0.1l-1.7,0.4h-0.1c-0.1,0-0.2,0-0.2,0h-0.1c-2.6-0.1-4.8-1.2-6.4-3.1H53.9z"/>
			<path fill-rule="evenodd" clip-rule="evenodd" fill="#DFDEE3" d="M54.3,84.8c2.5,1.1,5,2,7.5,2.5l0.1,0.1l-0.1,0.1
				c-0.4,0-0.8-0.1-1.3-0.1h-0.2c-2.6-0.3-4.7-1.1-6.3-2.3c-0.1-0.1-0.2-0.2-0.2-0.3H54.3z"/>
			<path fill-rule="evenodd" clip-rule="evenodd" fill="#E3E3E5" d="M61.9,87.5l0.1-0.1l-0.1-0.1h1.2l4,1.3
				c-1.2-0.3-2.7-0.6-4.5-0.9C62.4,87.6,62.1,87.6,61.9,87.5z"/>
			<path fill-rule="evenodd" clip-rule="evenodd" fill="#C1C2C6" d="M61.9,87.5c0.3,0,0.5,0.1,0.7,0.1c1.7,0.2,3.2,0.5,4.5,0.9
				l0.7,0.2c0.2,0.1,0.3,0.2,0.5,0.3h-1.1c0.1,0.1,0.2,0.1,0.2,0.1l0.6,0.9c-0.5-0.3-1-0.5-1.5-0.7c-0.3-0.1-0.6-0.2-0.8-0.2
				c-1.6-0.5-3.1-0.8-4.5-0.7l-1.1-0.5L61.9,87.5z"/>
			<path fill-rule="evenodd" clip-rule="evenodd" fill="#AEAFB1" d="M61.9,87.3c-2.5-0.5-5.1-1.3-7.5-2.5c-0.6-0.3-1.2-0.8-1.6-1.3
				c0.2,0.1,0.4,0.2,0.6,0.4c3,1.5,6.3,2.7,9.8,3.4H61.9z M54.6,90.6c-1.7,1.8-2.9,3.7-3.5,5.5L49.7,97c0.9-3.2,2.5-5.8,4.9-7.6
				C54.8,89.7,54.8,90.1,54.6,90.6C54.6,90.5,54.6,90.6,54.6,90.6z"/>
			<path fill-rule="evenodd" clip-rule="evenodd" fill="#363B3E" d="M56.4,88.4l-1.1,0.8l1.6-0.1c-0.8,0.5-1.5,1.1-2.2,1.8l-0.2-0.2
				c0,0,0-0.1,0.1-0.1c0.2-0.4,0.2-0.8-0.1-1.2l-0.1-0.1c-0.1-0.1-0.2-0.2-0.3-0.3c-0.3-0.1-0.6-0.2-0.9-0.4l1-0.1
				c0,0,0,0.1,0.1,0.1h0.1L56.4,88.4z"/>
			<path fill-rule="evenodd" clip-rule="evenodd" fill="#999A9E" d="M49.7,97c-0.2,0.8-0.4,1.6-0.5,2.5c0-0.8,0.1-1.6,0.3-2.3
				c0.6-3.1,2.2-5.9,4.7-8.1c0.1,0.1,0.2,0.2,0.3,0.3l0.1,0.1C52.2,91.2,50.6,93.7,49.7,97z"/>
			<path fill-rule="evenodd" clip-rule="evenodd" fill="#B5B6BA" d="M54.1,94.4c-0.1,0.3-0.2,0.6-0.3,1c-0.2,0.4-0.3,0.9-0.4,1.3
				l-0.6,0.7c0.2-0.8,0.4-1.5,0.7-2.2C53.7,94.9,53.9,94.6,54.1,94.4z"/>
			<path fill-rule="evenodd" clip-rule="evenodd" fill="#B2B2B2" d="M65.8,90.7c-5-1.3-8.9-0.1-11.7,3.7c-0.2,0.2-0.4,0.5-0.6,0.9
				c0.1-0.3,0.3-0.7,0.4-1c0.8-1.5,1.8-2.7,3.1-3.5c1.7-1.1,3.6-1.7,5.6-1.6c0.5,0,1,0,1.4,0.1c0.6,0.1,1.1,0.3,1.6,0.4V90.7z"/>
			
				<linearGradient id="SVGID_19_" gradientUnits="userSpaceOnUse" x1="-3.5938" y1="57.1055" x2="-6.9902" y2="61.0085" gradientTransform="matrix(1.4949 0 0 1.4949 63.901 7.5002)">
				<stop  offset="0" style="stop-color:#24282B"/>
				<stop  offset="0.6471" style="stop-color:#4F5054"/>
				<stop  offset="1" style="stop-color:#B9BABE"/>
			</linearGradient>
			<path fill-rule="evenodd" clip-rule="evenodd" fill="url(#SVGID_19_)" d="M52.8,97.4l-0.7,1c0.3-1.7,0.7-3.2,1.5-4.5
				c0.4-0.8,1-1.6,1.6-2.2c0.3-0.3,0.6-0.6,0.9-0.9c1.5-1.4,3.3-2.2,5.3-2.3c1.4-0.1,2.9,0.1,4.5,0.7v0.6c-0.5-0.1-1-0.3-1.6-0.4
				c-0.4-0.1-0.9-0.1-1.4-0.1c-2,0-3.9,0.5-5.6,1.6c-1.3,0.8-2.3,2-3.1,3.5c-0.1,0.3-0.3,0.6-0.4,1C53.2,95.9,53,96.6,52.8,97.4z"/>
			
				<linearGradient id="SVGID_20_" gradientUnits="userSpaceOnUse" x1="-8.0249" y1="59.3501" x2="-8.1499" y2="59.4751" gradientTransform="matrix(1.4949 0 0 1.4949 63.901 7.5002)">
				<stop  offset="0" style="stop-color:#2D2E32"/>
				<stop  offset="0.651" style="stop-color:#101113"/>
				<stop  offset="1" style="stop-color:#282C2F"/>
			</linearGradient>
			<path fill-rule="evenodd" clip-rule="evenodd" fill="url(#SVGID_20_)" d="M54.6,90.6l0.2,0.2c-1,1.1-1.9,2.4-2.5,4
				c0,0.2-0.1,0.4-0.2,0.6c0,0.1,0,0.2-0.1,0.4c-0.4,1.2-0.6,2.5-0.7,4l-0.8-0.1c0-0.7,0.1-1.4,0.2-2c0.1-0.5,0.2-1,0.4-1.5
				C51.6,94.3,52.8,92.5,54.6,90.6z"/>
			<path fill-rule="evenodd" clip-rule="evenodd" fill="#E4E8EB" d="M60,115.4l0.1,0.5l-0.1,0.2c-0.1-0.1-0.2-0.1-0.3-0.2
				c-1.6-0.7-3-1.7-4.1-3c-0.6-0.7-1.2-1.6-1.7-2.5c-1.1-1.9-1.9-4.3-2.4-7.2v-0.1c-0.1-1-0.2-1.8-0.2-2.5c0-0.4,0-0.7,0-0.8
				c0.1-1.4,0.3-2.8,0.7-4c0.1-0.2,0.1-0.3,0.1-0.4c0.1-0.2,0.2-0.4,0.2-0.6c0.2-0.4,0.6-0.7,1.2-1c-0.7,1.3-1.2,2.8-1.5,4.5
				c0,0.2-0.1,0.3-0.1,0.4c-0.5,5.7,1.1,10.5,5.1,14.3l2.8,2.2C59.8,115.3,59.9,115.3,60,115.4z"/>
			<path fill-rule="evenodd" clip-rule="evenodd" fill="#A6A7A9" d="M50.4,99.7c0,1.1,0.1,2.4,0.4,3.7v0.1c0.7,2.7,1.7,5.1,2.8,7.1
				c0.6,1.1,1.2,2.1,1.9,2.9v2.3l-0.4-0.3c-2.9-3.2-4.9-7.6-5.8-13.1c0-0.2,0-0.3-0.1-0.4l-0.1,0.4c-0.1-1-0.1-2-0.1-2.9
				c0.1-0.8,0.3-1.7,0.5-2.5l1.3-0.8c-0.2,0.5-0.3,1-0.4,1.5C50.5,98.3,50.4,99,50.4,99.7z"/>
			
				<linearGradient id="SVGID_21_" gradientUnits="userSpaceOnUse" x1="-5.8857" y1="66.0596" x2="-6.4843" y2="63.8342" gradientTransform="matrix(1.4949 0 0 1.4949 63.901 7.5002)">
				<stop  offset="0" style="stop-color:#181C1F"/>
				<stop  offset="1" style="stop-color:#B9BABE"/>
			</linearGradient>
			<path fill-rule="evenodd" clip-rule="evenodd" fill="url(#SVGID_21_)" d="M52.8,97.4c-0.2,0.9-0.3,1.8-0.4,2.8
				c0.1,6.6,2.7,11.5,7.5,14.5l-0.1,0.5l-2.8-2.2c-3.9-3.8-5.6-8.5-5.1-14.3c0-0.1,0-0.3,0.1-0.4L52.8,97.4z"/>
			
				<linearGradient id="SVGID_22_" gradientUnits="userSpaceOnUse" x1="-8.0132" y1="62.2119" x2="-9.2882" y2="63.4869" gradientTransform="matrix(1.4949 0 0 1.4949 63.901 7.5002)">
				<stop  offset="0" style="stop-color:#2D2E32"/>
				<stop  offset="0.651" style="stop-color:#101113"/>
				<stop  offset="1" style="stop-color:#282C2F"/>
			</linearGradient>
			<path fill-rule="evenodd" clip-rule="evenodd" fill="url(#SVGID_22_)" d="M50.9,103.3c-0.3-1.3-0.5-2.5-0.4-3.7l0.8,0.1
				c0,0.1,0,0.4,0,0.8c0,0.7,0.1,1.5,0.2,2.5v0.1L50.9,103.3C51,103.3,50.9,103.3,50.9,103.3z"/>
			
				<linearGradient id="SVGID_23_" gradientUnits="userSpaceOnUse" x1="-7.7998" y1="66.0879" x2="4.1002" y2="66.0879" gradientTransform="matrix(1.4949 0 0 1.4949 63.901 7.5002)">
				<stop  offset="0" style="stop-color:#BDBEC0"/>
				<stop  offset="1" style="stop-color:#797977"/>
			</linearGradient>
			<path fill-rule="evenodd" clip-rule="evenodd" fill="url(#SVGID_23_)" d="M70,113c-0.4,0.9-1.2,1.7-2.4,2.2
				c-1.8,1-4.4,0.8-7.8-0.5c-4.9-3-7.4-7.9-7.5-14.5c0.1-1,0.2-1.9,0.4-2.8l0.6-0.7c-1.2,4.7-0.5,8.9,1.9,12.6
				C60.1,115.5,65,116.8,70,113z"/>
			<path fill-rule="evenodd" clip-rule="evenodd" fill="#B5B5B5" d="M49.3,102.3l0.1-0.4c0,0.1,0.1,0.2,0.1,0.4
				c0.9,5.5,2.9,9.8,5.8,13.1c-3-2.7-4.9-6.7-5.8-12C49.4,103.1,49.3,102.7,49.3,102.3z"/>
			
				<linearGradient id="SVGID_24_" gradientUnits="userSpaceOnUse" x1="-6.7627" y1="65.5625" x2="-8.4877" y2="67.2875" gradientTransform="matrix(1.4949 0 0 1.4949 63.901 7.5002)">
				<stop  offset="0" style="stop-color:#2D2E32"/>
				<stop  offset="0.651" style="stop-color:#101113"/>
				<stop  offset="1" style="stop-color:#282C2F"/>
			</linearGradient>
			<path fill-rule="evenodd" clip-rule="evenodd" fill="url(#SVGID_24_)" d="M51.5,103.2c0.5,2.8,1.3,5.2,2.4,7.2l-0.2,0.1
				c-1.1-2-2-4.4-2.8-7.1H51L51.5,103.2z"/>
			
				<linearGradient id="SVGID_25_" gradientUnits="userSpaceOnUse" x1="-1.625" y1="70.375" x2="-3.875" y2="72.625" gradientTransform="matrix(1.4949 0 0 1.4949 63.901 7.5002)">
				<stop  offset="0" style="stop-color:#2D2E32"/>
				<stop  offset="0.651" style="stop-color:#101113"/>
				<stop  offset="1" style="stop-color:#282C2F"/>
			</linearGradient>
			<path fill-rule="evenodd" clip-rule="evenodd" fill="url(#SVGID_25_)" d="M53.9,110.4c0.5,0.9,1.1,1.8,1.7,2.5
				c1.1,1.3,2.5,2.3,4.1,3c0.1,0,0.2,0.1,0.3,0.2c2.3,0.9,4.4,1.4,6.2,1.3l0.1,0.5h-0.1c-4.3,0.3-7.9-1.1-10.6-4.5
				c-0.7-0.8-1.3-1.8-1.9-2.9L53.9,110.4z"/>
			
				<linearGradient id="SVGID_26_" gradientUnits="userSpaceOnUse" x1="-5.5752" y1="70.8105" x2="9.0742" y2="70.8105" gradientTransform="matrix(1.4949 0 0 1.4949 63.901 7.5002)">
				<stop  offset="0" style="stop-color:#B3B3B5"/>
				<stop  offset="0.6471" style="stop-color:#C5C5C7"/>
				<stop  offset="0.9922" style="stop-color:#C3C7C8"/>
			</linearGradient>
			<path fill-rule="evenodd" clip-rule="evenodd" fill="url(#SVGID_26_)" d="M71.4,115.7c0.8-0.6,1.5-1.2,2-1.9
				c1.2-1.5,2.1-3.3,2.5-5.3l1.6-1.1c-0.3,2.3-1.1,4.5-2.4,6.7c-1.6,2.9-4.5,4.7-8.5,5.4c-3.9,0.2-7.5-1-11-3.7v-2.3
				c2.7,3.3,6.3,4.8,10.6,4.5h0.1c0.3,0,0.7-0.1,1-0.1c0.1,0,0.2,0,0.3,0c0.9-0.4,1.8-0.8,2.6-1.3v-0.1
				C70.7,116.2,71.1,115.9,71.4,115.7z"/>
			<path fill-rule="evenodd" clip-rule="evenodd" fill="#FCFAFD" d="M60,115.4c-0.1-0.1-0.2-0.1-0.2-0.1l0.1-0.5
				c3.3,1.3,5.9,1.5,7.8,0.5l1.3-0.1c-0.6,0.4-1.4,0.8-2.3,1.2c-0.5,0.2-1,0.3-1.3,0.3c-0.4,0-1,0-1.7-0.1
				C62.8,116.5,61.7,116.1,60,115.4z"/>
			<path fill-rule="evenodd" clip-rule="evenodd" fill="#A7A5A8" d="M72.3,112.5l-1.9,2.8l2-1l-0.9,0.7l-0.1,0.1
				c-0.1,0-0.2,0.1-0.2,0.2c-0.3,0.3-0.7,0.6-1.1,0.8c-0.8,0.5-1.8,0.9-2.8,1.1c-0.3,0-0.7,0.1-1,0.1c-1.8,0.1-3.9-0.3-6.2-1.3
				l0.1-0.2l-0.1-0.5c1.6,0.7,2.8,1.1,3.5,1.2c0.7,0.1,1.3,0.1,1.7,0.1c0.3,0,0.8-0.1,1.3-0.3c1.2-0.2,2.3-0.6,3.1-1.2
				c0.4-0.3,0.7-0.6,1-1l-0.1-0.1C71.2,113.8,71.8,113.2,72.3,112.5z"/>
			<path fill-rule="evenodd" clip-rule="evenodd" fill="#ADADAD" d="M65.8,89.7c1.1,0.4,2.2,0.9,3.1,1.6c0.5,0.3,0.9,0.7,1.3,1.1
				c3,2.7,4.5,6.3,4.4,10.8l-0.6,0.7c0-2.4-0.4-4.5-1.3-6.4c-1.2-2.9-3.3-5.1-6.4-6.7c-0.2,0-0.4-0.1-0.5-0.1V89.7z"/>
			<path fill-rule="evenodd" clip-rule="evenodd" fill="#1C1D22" d="M73.6,96.1c0.9,2.1,1.5,4.3,1.6,6.4l-0.6,0.7
				c0-4.5-1.4-8.1-4.4-10.8c-0.4-0.4-0.8-0.8-1.3-1.1c-0.9-0.6-2-1.2-3.1-1.6v-0.6c0.2,0,0.5,0.1,0.8,0.2c0.5,0.2,1,0.4,1.5,0.7
				c2.2,1.2,3.8,2.8,4.9,4.9C73.2,95.3,73.4,95.7,73.6,96.1z"/>
			<path fill-rule="evenodd" clip-rule="evenodd" fill="#2C2D31" d="M73.5,94.3c0.1,0.2,0.2,0.4,0.3,0.5l-0.1,0.4
				c0-0.1-0.1-0.2-0.1-0.2c-0.1-0.1-0.2-0.2-0.2-0.4c-1.4-2.1-3.4-3.9-6-5.4c0,0-0.1-0.1-0.2-0.1h1.1C70.5,90.5,72.2,92.3,73.5,94.3
				z"/>
			<path fill-rule="evenodd" clip-rule="evenodd" fill="#EEF2F5" d="M73.6,96.1c-0.2-0.4-0.4-0.8-0.6-1.1c-1.1-2-2.7-3.7-4.9-4.9
				l-0.6-0.9c2.6,1.4,4.6,3.2,6,5.4c0,0.1,0.1,0.3,0.2,0.4c0,0,0,0.1,0.1,0.2L73.6,96.1z"/>
			
				<linearGradient id="SVGID_27_" gradientUnits="userSpaceOnUse" x1="21.0518" y1="54.6318" x2="21.4884" y2="54.6318" gradientTransform="matrix(1.4551 0.3424 -0.3819 1.4458 63.8998 7.5002)">
				<stop  offset="0" style="stop-color:#C3C6C7"/>
				<stop  offset="0.6471" style="stop-color:#D2D2D4"/>
				<stop  offset="0.9922" style="stop-color:#CCCCCE"/>
			</linearGradient>
			<path fill-rule="evenodd" clip-rule="evenodd" fill="url(#SVGID_27_)" d="M73.8,94.8c-0.1-0.1-0.2-0.3-0.3-0.5l0.4-1.6
				c0.2,0.2,0.3,0.4,0.4,0.7l-0.3,0.2L73.8,94.8z"/>
			
				<linearGradient id="SVGID_28_" gradientUnits="userSpaceOnUse" x1="21.2271" y1="58.2876" x2="21.5121" y2="58.2876" gradientTransform="matrix(1.4422 0.3933 -0.3737 1.4475 63.9002 7.4996)">
				<stop  offset="0" style="stop-color:#C3C6C7"/>
				<stop  offset="0.6471" style="stop-color:#D2D2D4"/>
				<stop  offset="0.9922" style="stop-color:#CCCCCE"/>
			</linearGradient>
			<path fill-rule="evenodd" clip-rule="evenodd" fill="url(#SVGID_28_)" d="M77.5,107.3l-1.6,1.1c0.1-0.4,0.2-0.9,0.2-1.4
				c0.1-1.3,0.1-2.7,0-4.2c0-0.4,0-0.9-0.1-1.3c-0.2-1.7-0.6-3.4-1.3-4.9C74.5,96,74.2,95.5,74,95c0,0-0.1-0.1-0.1-0.2l0.3-1.2
				l0.3-0.2c2,2.9,3,6.4,3.1,10.5C77.7,105.1,77.7,106.2,77.5,107.3z"/>
			<path fill-rule="evenodd" clip-rule="evenodd" fill="#7E7D82" d="M76,101.5l-0.2,0.4c-0.2-1.9-0.6-3.6-1.3-5.2
				c-0.2-0.5-0.4-1-0.7-1.5l0.1-0.4c0,0.1,0.1,0.2,0.1,0.2c0.2,0.5,0.5,1,0.7,1.6C75.4,98.1,75.8,99.7,76,101.5z"/>
			<path fill-rule="evenodd" clip-rule="evenodd" fill="#525358" d="M76,101.5c0.1,0.4,0.1,0.9,0.1,1.3c0.1,1.5,0.1,2.9,0,4.2
				l-0.5,0.6c0.3-1.6,0.3-3.3,0.2-5.2c0-0.2,0-0.4,0-0.6L76,101.5z"/>
			<path fill-rule="evenodd" clip-rule="evenodd" fill="#FEFFFF" d="M72.5,114.2l-2,1l1.9-2.8c0-0.1,0.1-0.2,0.2-0.3
				c0.5-0.7,1-1.5,1.4-2.5c1-2.3,1.5-4.8,1.3-7.2l0.5-0.6c0,0.2,0,0.4,0,0.6c0.2,1.8,0.1,3.6-0.2,5.2c0,0.4-0.1,0.8-0.2,1.2
				C74.9,110.8,73.9,112.6,72.5,114.2z"/>
			<path fill-rule="evenodd" clip-rule="evenodd" fill="#CCCCCE" d="M67.6,115.3c1.1-0.5,1.9-1.3,2.4-2.2c0.1-0.1,0.3-0.2,0.4-0.2
				c0.1-0.2,0.2-0.3,0.3-0.3c1.7-1.9,2.7-3.8,3.1-5.6v-0.1c0.1-1,0.2-2,0.2-2.9l0.6-0.7c0,0.1,0,0.3,0,0.5c-0.1,4.5-1.6,8-4.6,10.5
				l-0.1,0.1c-0.2,0.3-0.6,0.6-1,0.9L67.6,115.3z"/>
			<path fill-rule="evenodd" clip-rule="evenodd" fill="#343539" d="M74.7,103.2l0.6-0.7c0.1,2.5-0.3,4.9-1.3,7.2
				c-0.4,1-0.9,1.8-1.4,2.5c0,0.1-0.1,0.2-0.2,0.3c-0.5,0.7-1.1,1.2-1.7,1.6l-0.6,0.1c3-2.5,4.6-6,4.6-10.5
				C74.7,103.5,74.7,103.3,74.7,103.2z"/>
			
				<linearGradient id="SVGID_29_" gradientUnits="userSpaceOnUse" x1="3.7744" y1="72.3252" x2="1.925" y2="74.1746" gradientTransform="matrix(1.4949 0 0 1.4949 63.901 7.5002)">
				<stop  offset="0" style="stop-color:#2D2E32"/>
				<stop  offset="0.651" style="stop-color:#101113"/>
				<stop  offset="1" style="stop-color:#282C2F"/>
			</linearGradient>
			<path fill-rule="evenodd" clip-rule="evenodd" fill="url(#SVGID_29_)" d="M66.2,117.4c0.3,0,0.7,0,1-0.1c1-0.2,2-0.6,2.8-1.1
				l0.2,0.3c-0.8,0.4-1.7,0.9-2.6,1.3c-0.1,0-0.2,0-0.3,0c-0.3,0-0.7,0.1-1,0.1L66.2,117.4z"/>
			<path fill-rule="evenodd" clip-rule="evenodd" fill="#929397" d="M68.9,115.2c0.4-0.3,0.7-0.6,1-0.9l0.1-0.1l0.6-0.1l0.1,0.1
				c-0.2,0.3-0.6,0.7-1,1c-0.8,0.6-1.9,1-3.1,1.2C67.5,116,68.3,115.6,68.9,115.2z"/>
			
				<linearGradient id="SVGID_30_" gradientUnits="userSpaceOnUse" x1="5.1748" y1="71.9502" x2="4.2498" y2="72.8752" gradientTransform="matrix(1.4949 0 0 1.4949 63.901 7.5002)">
				<stop  offset="0" style="stop-color:#2D2E32"/>
				<stop  offset="0.651" style="stop-color:#101113"/>
				<stop  offset="1" style="stop-color:#282C2F"/>
			</linearGradient>
			<path fill-rule="evenodd" clip-rule="evenodd" fill="url(#SVGID_30_)" d="M71.6,115l-0.1,0.7c-0.3,0.3-0.7,0.5-1.2,0.7v0.1
				l-0.2-0.3c0.4-0.3,0.8-0.5,1.1-0.8c0-0.1,0.1-0.2,0.2-0.2L71.6,115z"/>
			
				<linearGradient id="SVGID_31_" gradientUnits="userSpaceOnUse" x1="6.3286" y1="70.9541" x2="5.0034" y2="72.2793" gradientTransform="matrix(1.4949 0 0 1.4949 63.901 7.5002)">
				<stop  offset="0" style="stop-color:#2D2E32"/>
				<stop  offset="0.651" style="stop-color:#101113"/>
				<stop  offset="1" style="stop-color:#282C2F"/>
			</linearGradient>
			<path fill-rule="evenodd" clip-rule="evenodd" fill="url(#SVGID_31_)" d="M73.5,113.7c-0.5,0.7-1.2,1.3-2,1.9l0.1-0.7l0.9-0.7
				c-0.1,0.1-0.2,0.2-0.3,0.3L73.5,113.7z"/>
		</g>
	</g>
	<g>
		
			<linearGradient id="SVGID_32_" gradientUnits="userSpaceOnUse" x1="-16.3745" y1="27.8252" x2="-16.3745" y2="30.8752" gradientTransform="matrix(1.4949 0 0 1.4949 63.901 7.5002)">
			<stop  offset="0" style="stop-color:#FFFFFF"/>
			<stop  offset="0.1137" style="stop-color:#FFFFFF"/>
			<stop  offset="0.3137" style="stop-color:#878787"/>
			<stop  offset="0.5647" style="stop-color:#888888"/>
			<stop  offset="1" style="stop-color:#000000"/>
		</linearGradient>
		<path fill-rule="evenodd" clip-rule="evenodd" fill="url(#SVGID_32_)" d="M38.2,52.6c-0.4-0.3-0.6-0.8-0.6-1.3
			c0-0.5,0.2-1,0.6-1.3c0.3-0.3,0.8-0.5,1.3-0.5c0.5,0,0.9,0.2,1.3,0.5c0.3,0.3,0.5,0.8,0.5,1.3c0,0.5-0.2,0.9-0.5,1.3
			c-0.3,0.3-0.8,0.5-1.3,0.5C39,53.2,38.5,53,38.2,52.6z"/>
	</g>
	<g>
		<g>
			
				<radialGradient id="SVGID_33_" cx="-15.8501" cy="29.1499" r="1.7125" gradientTransform="matrix(1.4949 0 0 1.4949 63.901 7.5002)" gradientUnits="userSpaceOnUse">
				<stop  offset="0" style="stop-color:#FFFFFF"/>
				<stop  offset="0.1137" style="stop-color:#FFFFFF"/>
				<stop  offset="0.3137" style="stop-color:#878787"/>
				<stop  offset="0.5647" style="stop-color:#888888"/>
				<stop  offset="1" style="stop-color:#000000"/>
			</radialGradient>
			<path fill-rule="evenodd" clip-rule="evenodd" fill="url(#SVGID_33_)" d="M41,51.4c0,0.4-0.2,0.8-0.5,1.2
				c-0.3,0.3-0.7,0.4-1.1,0.4c-0.4,0-0.8-0.1-1.1-0.4c-0.3-0.3-0.5-0.7-0.5-1.2c0-0.4,0.2-0.8,0.5-1.1c0.3-0.3,0.7-0.4,1.1-0.4
				c0.4,0,0.8,0.1,1.1,0.4C40.9,50.6,41,50.9,41,51.4z M38.7,50.3c0.1,0.2,0.3,0.3,0.5,0.1c0.3-0.1,0.3-0.3,0-0.4
				c-0.1,0-0.2,0-0.3,0C38.8,50.1,38.7,50.2,38.7,50.3z"/>
			<path fill-rule="evenodd" clip-rule="evenodd" fill="#C5C4C0" d="M38.7,50.3c0-0.1,0.1-0.2,0.2-0.3c0.1,0,0.2,0,0.3,0
				c0.3,0.1,0.3,0.2,0,0.4C39,50.6,38.8,50.6,38.7,50.3z"/>
		</g>
	</g>
</g>
</svg>
